<svg width="90" height="62" viewBox="0 0 90 62" fill="none" xmlns="http://www.w3.org/2000/svg">
<path fill-rule="evenodd" clip-rule="evenodd" d="M16.8375 14.0896C18.2821 13.7412 19.7588 13.5658 21.24 13.5666C32.97 13.5666 42.4762 24.4103 42.4762 37.7813C42.4762 51.1563 32.97 62 21.24 62C9.51 62 0 51.1603 0 37.7813C0 37.39 0.0075 36.9948 0.02625 36.6035H0C0 16.4213 14.4 0 32.1 0V8.12879C26.3588 8.12879 21.0637 10.3566 16.8375 14.0896ZM64.365 14.0896C65.7825 13.7463 67.2525 13.5666 68.76 13.5666C80.49 13.5666 90 24.4103 90 37.7813C90 51.1563 80.49 62 68.76 62C57.03 62 47.5238 51.1603 47.5238 37.7813C47.5238 37.39 47.5312 36.9948 47.55 36.6035H47.5238C47.5238 16.4213 61.9238 0 79.6237 0V8.12879C73.8787 8.12879 68.5912 10.3566 64.365 14.0896Z" fill="#B89B5F" fill-opacity="0.24"/>
</svg>
