<svg width="50" height="50" viewBox="0 0 50 50" fill="none" xmlns="http://www.w3.org/2000/svg">
<circle cx="25" cy="25" r="25" fill="#294985"/>
<path d="M30.7758 38.6682C29.9606 38.4737 29.1282 38.3308 28.3325 38.0757C25.8225 37.2705 23.595 35.9311 21.5237 34.3298C18.1147 31.6956 15.2408 28.5777 13.0902 24.8295C12.1545 23.1984 11.4173 21.4839 11.0683 19.623C10.8719 18.5741 11.089 17.6305 11.8502 16.8538C12.7527 15.9354 13.6655 15.0272 14.5829 14.1236C15.0238 13.6901 15.4521 13.697 15.8941 14.1373C17.497 15.7318 19.0976 17.3285 20.6936 18.9287C21.1322 19.369 21.1299 19.7877 20.6913 20.2314C19.8967 21.0344 19.0918 21.8293 18.2938 22.63C17.6945 23.2316 17.6554 23.6537 18.1526 24.3251C20.1688 27.0439 22.5375 29.4126 25.2633 31.4234C25.9396 31.9233 26.3576 31.8867 26.9604 31.2896C27.7434 30.5141 28.5185 29.7318 29.3015 28.9574C29.8285 28.437 30.2166 28.4347 30.7356 28.9517C32.3075 30.5164 33.8771 32.0822 35.4443 33.6515C35.9449 34.1525 35.9392 34.5322 35.4306 35.0435C34.5717 35.9048 33.7048 36.7581 32.8506 37.6239C32.2834 38.1992 31.614 38.5355 30.7976 38.5618C30.7907 38.5973 30.7838 38.6327 30.7758 38.667V38.6682Z" fill="white"/>
<path d="M38.5909 22.3026C38.599 22.4593 38.6139 22.616 38.6139 22.7727C38.6139 23.2405 38.3269 23.5688 37.9089 23.5859C37.5197 23.6019 37.1879 23.2611 37.1408 22.8139C37.0616 22.0647 37.0386 21.3006 36.8767 20.5686C35.9501 16.3583 32.4734 13.1603 28.2044 12.5564C27.7532 12.4923 27.2939 12.4797 26.8381 12.458C26.3352 12.434 26.0206 12.1526 26.0275 11.7111C26.0332 11.2593 26.3294 11.0065 26.8576 11.0008C32.23 10.9345 37.2234 14.9263 38.3292 20.1843C38.475 20.8786 38.5519 21.5889 38.661 22.2912C38.638 22.2946 38.6151 22.298 38.5932 22.3015L38.5909 22.3026Z" fill="white"/>
<path d="M33.4319 22.5553C33.4319 23.205 33.1311 23.5676 32.6764 23.5698C32.2194 23.5721 31.9369 23.2267 31.9071 22.6182C31.8152 20.7813 30.9575 19.3904 29.4155 18.4182C28.6658 17.9447 27.8322 17.7034 26.9389 17.6851C26.9102 17.6851 26.8815 17.6851 26.8528 17.6828C26.3292 17.6519 25.9916 17.3431 26.0042 16.905C26.0157 16.4703 26.3797 16.1524 26.8929 16.1707C30.4294 16.2999 33.0071 18.9352 33.3572 22.0223C33.3814 22.2339 33.417 22.4455 33.4319 22.5542V22.5553Z" fill="white"/>
<path d="M29.2279 23.7746C29.2314 24.3717 28.9937 24.6954 28.5367 24.7148C28.0993 24.7343 27.8295 24.4209 27.7652 23.8307C27.7514 23.7037 27.7204 23.5779 27.6871 23.4555C27.4609 22.6206 26.7616 22.059 25.8994 21.9652C25.6582 21.9389 25.3413 21.8645 25.2185 21.6964C25.0761 21.5008 24.9957 21.1211 25.0945 20.9255C25.2035 20.7093 25.5492 20.476 25.788 20.4805C27.8926 20.5194 29.2061 22.2077 29.2279 23.7758V23.7746Z" fill="white"/>
</svg>
