<svg width="34" height="34" viewBox="0 0 34 34" fill="none" xmlns="http://www.w3.org/2000/svg">
<path d="M32.5833 18.4094H1.41667C0.634667 18.4094 0 17.7747 0 16.9927C0 16.2107 0.634667 15.5761 1.41667 15.5761H32.5833C33.3653 15.5761 34 16.2107 34 16.9927C34 17.7747 33.3653 18.4094 32.5833 18.4094ZM32.5833 7.54818H1.41667C0.634667 7.54818 0 6.91351 0 6.13151C0 5.34951 0.634667 4.71484 1.41667 4.71484H32.5833C33.3653 4.71484 34 5.34951 34 6.13151C34 6.91351 33.3653 7.54818 32.5833 7.54818ZM32.5833 29.2703H1.41667C0.634667 29.2703 0 28.6356 0 27.8536C0 27.0716 0.634667 26.4369 1.41667 26.4369H32.5833C33.3653 26.4369 34 27.0716 34 27.8536C34 28.6356 33.3653 29.2703 32.5833 29.2703Z" fill="#333333"/>
</svg>
