<svg width="20" height="20" viewBox="0 0 20 20" fill="none" xmlns="http://www.w3.org/2000/svg">
<g clip-path="url(#clip0_1239_4)">
<g clip-path="url(#clip1_1239_4)">
<path fill-rule="evenodd" clip-rule="evenodd" d="M10.6089 0.277344H9.43123C9.2909 0.297253 9.15022 0.315283 9.00953 0.333314C8.70541 0.37229 8.40128 0.411269 8.10071 0.469231C4.18631 1.2251 1.09429 4.39277 0.422175 8.3295C0.381269 8.56909 0.350139 8.81055 0.319013 9.05198C0.304173 9.16708 0.289335 9.28218 0.273438 9.39706V10.6129C0.289361 10.7277 0.303296 10.8429 0.31723 10.9582C0.347275 11.2066 0.377313 11.4551 0.427252 11.6992C1.18465 15.3907 3.30708 17.9655 6.87172 19.1879C10.3475 20.3793 13.5649 19.7052 16.3717 17.3391C18.2783 15.7314 19.3703 13.6318 19.652 11.1504C20.2109 6.22737 17.1509 1.79873 12.3628 0.572789C12.0138 0.483185 11.6548 0.433899 11.2957 0.384599C11.1279 0.36156 10.9601 0.338517 10.7932 0.311355C10.7471 0.304177 10.7016 0.29531 10.656 0.286431C10.6403 0.283381 10.6247 0.280329 10.6089 0.277344ZM10.3281 15.2031C13.4004 15.2031 15.4844 13.0547 15.4844 10.0039C15.4844 9.67931 15.4461 9.43134 15.4056 9.16956C15.4032 9.15411 15.4008 9.13861 15.3984 9.12305H10.3281V10.9492H13.3359C13.2285 11.7441 12.4336 13.248 10.3281 13.248C8.50195 13.248 7.01953 11.7441 7.01953 9.875C7.01953 6.88867 10.543 5.51367 12.4336 7.33984L13.8945 5.94336C12.9707 5.08398 11.7461 4.54688 10.3281 4.54688C7.36328 4.54688 5 6.93164 5 9.875C5 12.8398 7.36328 15.2031 10.3281 15.2031Z" fill="#333333"/>
</g>
</g>
<defs>
<clipPath id="clip0_1239_4">
<rect width="19.4441" height="19.4441" fill="white" transform="translate(0.273438 0.277344)"/>
</clipPath>
<clipPath id="clip1_1239_4">
<rect width="19.4441" height="19.4872" fill="white" transform="translate(0.273438 0.277344)"/>
</clipPath>
</defs>
</svg>
