<svg width="20" height="20" viewBox="0 0 20 20" fill="none" xmlns="http://www.w3.org/2000/svg">
<g clip-path="url(#clip0_1239_9)">
<g clip-path="url(#clip1_1239_9)">
<path fill-rule="evenodd" clip-rule="evenodd" d="M10.6089 0.277344H9.43123C9.2909 0.297253 9.15022 0.315283 9.00953 0.333314C8.70541 0.37229 8.40128 0.411269 8.10071 0.469231C4.18631 1.2251 1.09429 4.39277 0.422175 8.3295C0.381269 8.56909 0.350139 8.81055 0.319013 9.05198C0.304173 9.16708 0.289335 9.28218 0.273438 9.39706V10.6129C0.289361 10.7277 0.303296 10.8429 0.31723 10.9582C0.347275 11.2066 0.377313 11.4551 0.427252 11.6992C1.18465 15.3907 3.30708 17.9655 6.87172 19.1879C10.3475 20.3793 13.5649 19.7052 16.3717 17.3391C18.2783 15.7314 19.3703 13.6318 19.652 11.1504C20.2109 6.22737 17.1509 1.79873 12.3628 0.572789C12.0138 0.483185 11.6548 0.433899 11.2957 0.384599C11.1279 0.36156 10.9601 0.338517 10.7932 0.311355C10.7471 0.304177 10.7016 0.29531 10.656 0.286431C10.6403 0.283381 10.6247 0.280329 10.6089 0.277344ZM15 8.50781C15 6.1875 12.9844 4.66406 10.7812 4.66406C8.36719 4.66406 6 6.25781 6 8.85938C6 10.5 6.91406 11.4375 7.47656 11.4375C7.71094 11.4375 7.85156 10.8047 7.85156 10.6172C7.85156 10.5487 7.79233 10.4531 7.71231 10.324C7.54573 10.0551 7.28906 9.64089 7.28906 9.02344C7.28906 7.14844 8.71875 5.8125 10.5703 5.8125C12.1875 5.8125 13.3594 6.72656 13.3594 8.39062C13.3594 9.63281 12.8672 11.9531 11.25 11.9531C10.6641 11.9531 10.1484 11.5312 10.1484 10.9453C10.1484 10.5029 10.3046 10.0663 10.4618 9.62678C10.621 9.18156 10.7812 8.73344 10.7812 8.27344C10.7812 6.72656 8.57812 7.00781 8.57812 8.88281C8.57812 9.28125 8.625 9.70312 8.8125 10.0781C8.73719 10.3955 8.64458 10.75 8.5466 11.125C8.21769 12.3839 7.82812 13.875 7.82812 14.9766C7.82812 15.4006 7.87063 15.8034 7.91517 16.2255C7.9174 16.2466 7.91964 16.2678 7.92188 16.2891C7.95703 16.3359 7.96875 16.3594 7.98633 16.3652C8.00391 16.3711 8.02734 16.3594 8.08594 16.3359C9.12376 14.9037 9.2241 14.4826 9.59162 12.9398C9.63909 12.7405 9.69102 12.5225 9.75 12.2812C10.0547 12.8203 10.7812 13.125 11.3906 13.125C13.875 13.125 15 10.6875 15 8.50781Z" fill="#333333"/>
</g>
</g>
<defs>
<clipPath id="clip0_1239_9">
<rect width="19.4441" height="19.4441" fill="white" transform="translate(0.273438 0.277344)"/>
</clipPath>
<clipPath id="clip1_1239_9">
<rect width="19.4441" height="19.4872" fill="white" transform="translate(0.273438 0.277344)"/>
</clipPath>
</defs>
</svg>
