<svg width="24" height="26" viewBox="0 0 24 26" fill="none" xmlns="http://www.w3.org/2000/svg">
<g clip-path="url(#clip0_4946_1028)">
<path d="M7.38408 3.80054C7.38408 3.38014 7.38254 2.99616 7.38408 2.61217C7.39024 1.14987 8.42104 0.0390924 9.83724 0.0169243C11.2788 -0.00524383 12.7212 -0.00603554 14.1628 0.0169243C15.5682 0.0390924 16.6013 1.14116 16.6144 2.58446C16.6182 2.97795 16.6144 3.37222 16.6144 3.80054C16.7398 3.80054 16.8421 3.80054 16.9436 3.80054C18.9337 3.8045 20.923 3.80292 22.913 3.81875C23.1338 3.82033 23.3769 3.87496 23.57 3.98105C23.9254 4.17661 24.0708 4.61601 23.9662 5.00395C23.8569 5.4101 23.54 5.69116 23.1346 5.70383C22.6638 5.71887 22.1923 5.71729 21.7215 5.70779C21.5392 5.70383 21.4722 5.76004 21.4607 5.9556C21.2899 8.88812 21.1114 11.8198 20.9337 14.7516C20.7799 17.2882 20.636 19.8265 20.4653 22.3624C20.3268 24.4184 18.7391 25.9694 16.7321 25.9837C13.5889 26.0058 10.445 26.0058 7.30177 25.9837C5.25709 25.9694 3.68243 24.3353 3.56627 22.2333C3.42473 19.6658 3.2401 17.1014 3.07548 14.5354C2.95163 12.6013 2.83009 10.6663 2.70778 8.73215C2.64855 7.79476 2.58547 6.85736 2.53393 5.91918C2.52393 5.74263 2.44854 5.70779 2.2993 5.71017C1.86698 5.7165 1.43389 5.71571 1.00157 5.71096C0.412321 5.70541 0 5.31589 0 4.76723C0 4.21619 0.409244 3.81558 1.0008 3.81321C3.03856 3.80529 5.07632 3.80371 7.11407 3.79975C7.19023 3.79975 7.26639 3.79975 7.38408 3.79975V3.80054ZM4.44014 5.76875C4.44014 5.87959 4.43476 5.98568 4.44014 6.09256C4.56015 8.23574 4.67938 10.3789 4.80323 12.5221C4.98631 15.7016 5.17709 18.8812 5.35556 22.0615C5.42633 23.3164 6.19328 24.0867 7.41332 24.0899C8.46104 24.0931 9.50954 24.0899 10.5573 24.0899C12.5573 24.0899 14.5566 24.0915 16.5567 24.0899C17.7975 24.0883 18.5752 23.3243 18.6406 22.0544C18.6606 21.6593 18.6891 21.2642 18.7129 20.87C18.8598 18.4608 19.006 16.0516 19.1522 13.6432C19.2791 11.5602 19.4068 9.47716 19.5329 7.39336C19.5652 6.86449 19.5922 6.33562 19.6229 5.77034H4.44014V5.76875ZM9.23184 3.77679H14.7689C14.7689 3.45931 14.7689 3.16321 14.7689 2.86711C14.7689 2.11102 14.6359 1.97642 13.8889 1.97642C12.7927 1.97642 11.6965 1.97642 10.6011 1.97642C10.3319 1.97642 10.0619 1.96692 9.79339 1.98197C9.458 2.00176 9.24491 2.21236 9.23491 2.54092C9.2226 2.94549 9.23184 3.35005 9.23184 3.776V3.77679Z" fill="#0068B5"/>
<path d="M7.384 14.87C7.384 13.1979 7.38092 11.525 7.38554 9.85292C7.38708 9.34068 7.73478 8.94166 8.19479 8.89574C8.67943 8.84744 9.09944 9.14513 9.20406 9.62649C9.23329 9.7595 9.22867 9.90122 9.22867 10.0398C9.23021 13.2755 9.22944 16.5121 9.22944 19.7478C9.22944 19.8167 9.23098 19.8864 9.22944 19.9552C9.21098 20.5055 8.80328 20.9172 8.28864 20.9085C7.79094 20.8998 7.38862 20.4841 7.38631 19.9465C7.38015 18.2546 7.384 16.5619 7.384 14.87Z" fill="#0068B5"/>
<path d="M11.0762 14.87C11.0762 13.1979 11.0731 11.525 11.0777 9.85293C11.0793 9.34069 11.427 8.94167 11.887 8.89575C12.3724 8.84745 12.7916 9.14435 12.8962 9.6265C12.9255 9.75951 12.9209 9.90123 12.9209 10.0398C12.9224 13.2755 12.9216 16.5121 12.9216 19.7478C12.9216 19.8167 12.9232 19.8864 12.9216 19.9552C12.9032 20.5055 12.4955 20.9172 11.9801 20.9085C11.4823 20.8998 11.08 20.4841 11.0777 19.9465C11.0716 18.2546 11.0754 16.5619 11.0754 14.87H11.0762Z" fill="#0068B5"/>
<path d="M16.6162 14.8716C16.6162 16.554 16.6186 18.2364 16.6147 19.9188C16.6139 20.4319 16.277 20.842 15.8262 20.9022C15.3531 20.9655 14.9216 20.6702 14.8023 20.1912C14.7739 20.078 14.7708 19.9568 14.7708 19.8389C14.7693 16.5437 14.7693 13.2478 14.77 9.9527C14.77 9.31378 15.1354 8.89496 15.6878 8.89259C16.2385 8.89021 16.6147 9.31378 16.6155 9.94399C16.617 11.5868 16.6155 13.2296 16.6155 14.8724L16.6162 14.8716Z" fill="#0068B5"/>
</g>
<defs>
<clipPath id="clip0_4946_1028">
<rect width="24" height="26" fill="white"/>
</clipPath>
</defs>
</svg>
