<svg width="26" height="26" viewBox="0 0 26 26" fill="none" xmlns="http://www.w3.org/2000/svg">
<path d="M26 4.85621C25.9817 6.37926 25.5026 7.5817 24.5261 8.56431C22.5224 10.5803 20.5019 12.5805 18.4915 14.5899C15.3171 17.7625 12.1469 20.9385 8.96664 24.1062C8.82 24.2519 8.61254 24.3777 8.41258 24.4218C6.02637 24.9506 3.63683 25.4644 1.24729 25.9748C0.484938 26.138 -0.138276 25.4827 0.0266928 24.7291C0.54326 22.3633 1.04566 19.9951 1.5689 17.631C1.61555 17.4211 1.7347 17.1963 1.88634 17.0447C6.04304 12.8811 10.2072 8.72586 14.3723 4.57059C15.4921 3.45308 16.5593 2.27562 17.75 1.23888C20.6736 -1.30758 25.1752 0.289581 25.91 4.09511C25.9667 4.38989 25.9809 4.693 25.9992 4.85788L26 4.85621ZM15.3312 6.4542C15.3104 6.47169 15.2696 6.50167 15.2346 6.53664C11.3603 10.4071 7.48609 14.2784 3.616 18.1531C3.52769 18.2422 3.45937 18.3746 3.43187 18.4978C3.15526 19.7461 2.88948 20.996 2.62119 22.2459C2.52038 22.7155 2.4204 23.186 2.31292 23.6898C4.09591 23.3059 5.82474 22.9371 7.55025 22.5548C7.68855 22.524 7.82353 22.4124 7.92934 22.3075C11.7403 18.5062 15.5479 14.7015 19.3555 10.8968C19.433 10.8193 19.5063 10.7385 19.5621 10.6811C18.1374 9.25797 16.7393 7.8615 15.3304 6.4542H15.3312ZM20.9993 9.16804C21.7309 8.45939 22.4757 7.7624 23.1914 7.03794C24.2912 5.92543 24.257 4.02349 23.1381 2.89266C22.0141 1.75683 20.0912 1.72186 18.9647 2.82271C18.2957 3.47723 17.635 4.14008 16.9718 4.80125C16.9084 4.86454 16.8526 4.93616 16.8135 4.98112C18.2274 6.39591 19.6229 7.79155 20.9993 9.16804Z" fill="#0068B5"/>
</svg>
