<svg width="125" height="125" viewBox="0 0 125 125" fill="none" xmlns="http://www.w3.org/2000/svg">
<rect x="1.07178" y="0.890625" width="123" height="123" rx="61.5" fill="#F1F3F5" stroke="#DCDCDC"/>
<g opacity="0.4" clip-path="url(#clip0_4903_358)">
<path d="M49.3623 52.3308C49.37 45.1663 55.3127 39.37 62.6254 39.3907C69.8884 39.4114 75.7852 45.2303 75.7757 52.3722C75.768 59.5349 69.8195 65.3368 62.5125 65.3143C55.2496 65.2917 49.3547 59.4709 49.3623 52.3308ZM62.5967 42.7725C57.1954 42.7631 52.8178 47.0351 52.8063 52.3233C52.7967 57.6228 57.1514 61.923 62.5393 61.9324C67.9368 61.9437 72.3183 57.668 72.3298 52.3798C72.3413 47.0802 67.9866 42.7819 62.5967 42.7725Z" fill="#AEAEAE"/>
<path d="M64.0565 69.8242C72.3182 70.1705 79.8911 74.2562 85.1011 82.4106C85.2771 82.6853 85.4474 82.9846 85.5239 83.2951C85.7306 84.1288 85.2752 84.9587 84.506 85.2485C83.7005 85.5534 82.8414 85.2673 82.3497 84.46C81.2381 82.6364 79.9332 80.9709 78.3758 79.4898C67.8429 69.4761 50.493 71.7664 43.0387 84.1608C42.3556 85.2956 41.5253 85.6475 40.582 85.2033C39.5947 84.7385 39.2848 83.7016 39.8683 82.7041C41.7147 79.5406 44.1656 76.9078 47.16 74.7586C51.5893 71.5782 57.0824 69.8223 64.0603 69.8242H64.0565Z" fill="#AEAEAE"/>
</g>
<defs>
<clipPath id="clip0_4903_358">
<rect width="46" height="46" fill="white" transform="translate(39.5718 39.3906)"/>
</clipPath>
</defs>
</svg>
