<svg width="24" height="27" viewBox="0 0 24 27" fill="none" xmlns="http://www.w3.org/2000/svg">
<path d="M5.67981 26.1602C5.45981 26.0902 5.21981 26.0302 5.01981 25.9302C4.14981 25.5002 3.7798 24.7502 3.7098 23.8002C3.4598 20.6302 3.19981 17.4602 2.92981 14.2902C2.79981 12.7602 2.6698 11.2402 2.5498 9.71016C2.5498 9.62016 2.5498 9.52016 2.5498 9.41016H21.9198C21.8798 9.98016 21.8298 10.5402 21.7898 11.1002C21.6598 12.6302 21.5298 14.1702 21.4098 15.7002C21.2598 17.4702 21.1198 19.2402 20.9698 21.0102C20.8798 22.0402 20.8198 23.0702 20.7098 24.0902C20.5898 25.1602 19.9198 25.8702 18.8698 26.1002C18.8398 26.1002 18.8098 26.1302 18.7798 26.1402H5.69981L5.67981 26.1602ZM6.89981 16.9902C6.89981 17.2202 6.89981 17.4502 6.89981 17.6702C6.89981 19.2102 6.89981 20.7502 6.89981 22.2902C6.89981 22.6902 7.06981 22.9502 7.39981 23.0602C7.94981 23.2402 8.4198 22.8802 8.4198 22.2702C8.4198 18.7702 8.4198 15.2702 8.4198 11.7702C8.4198 11.7102 8.4198 11.6502 8.4198 11.5902C8.3798 11.2902 8.21981 11.0702 7.92981 10.9802C7.39981 10.8002 6.90981 11.1502 6.90981 11.7202C6.90981 13.4802 6.90981 15.2402 6.90981 17.0002L6.89981 16.9902ZM11.4598 17.0102C11.4598 17.1702 11.4598 17.3302 11.4598 17.4902C11.4598 19.0902 11.4598 20.6902 11.4598 22.2802C11.4598 22.6802 11.6298 22.9402 11.9598 23.0502C12.5098 23.2302 12.9798 22.8702 12.9798 22.2602C12.9798 18.7602 12.9798 15.2602 12.9798 11.7602C12.9798 11.7002 12.9798 11.6402 12.9798 11.5802C12.9398 11.2802 12.7798 11.0602 12.4898 10.9702C11.9498 10.7902 11.4698 11.1402 11.4698 11.7302C11.4698 13.4902 11.4698 15.2502 11.4698 17.0102H11.4598ZM16.0198 17.0102C16.0198 17.3102 16.0198 17.6002 16.0198 17.9002C16.0198 19.3602 16.0198 20.8302 16.0198 22.2902C16.0198 22.6902 16.1898 22.9502 16.5198 23.0502C17.0698 23.2302 17.5398 22.8702 17.5398 22.2802C17.5398 19.8802 17.5398 17.4702 17.5398 15.0702C17.5398 13.9602 17.5398 12.8502 17.5398 11.7502C17.5398 11.4202 17.4198 11.1602 17.1198 11.0002C16.5998 10.7302 16.0298 11.1102 16.0198 11.7302C16.0198 13.4902 16.0198 15.2502 16.0198 17.0102Z" fill="#13498E"/>
<path d="M14.5 0.160156C14.64 0.200156 14.79 0.240156 14.93 0.300156C15.58 0.540156 16.04 0.970156 16.28 1.62016C16.45 2.08016 16.6 2.54016 16.75 3.01016C16.8 3.17016 16.87 3.22016 17.03 3.21016C18.42 3.21016 19.82 3.21016 21.21 3.21016C22.64 3.21016 23.61 4.18016 23.62 5.61016C23.62 6.06016 23.62 6.51016 23.62 6.96016C23.62 7.47016 23.31 7.78016 22.8 7.78016C15.82 7.78016 8.82996 7.78016 1.84996 7.78016C1.74996 7.78016 1.64996 7.78016 1.54996 7.76016C0.999963 7.69016 0.809964 7.48016 0.819964 6.92016C0.819964 6.31016 0.789963 5.70016 0.869963 5.10016C1.01996 4.00016 1.96997 3.22016 3.07997 3.21016C4.50997 3.20016 5.92996 3.21016 7.35996 3.21016C7.56996 3.21016 7.65996 3.15016 7.70996 2.96016C7.81996 2.56016 7.95996 2.17016 8.09996 1.78016C8.38996 0.930156 8.96996 0.400156 9.85996 0.200156C9.88996 0.200156 9.91996 0.170156 9.94996 0.160156C11.47 0.160156 12.99 0.160156 14.51 0.160156H14.5ZM9.21996 3.19016H15.21C15.09 2.83016 14.98 2.50016 14.86 2.17016C14.74 1.86016 14.5 1.69016 14.18 1.69016C12.87 1.69016 11.56 1.69016 10.25 1.69016C9.92996 1.69016 9.67996 1.86016 9.56996 2.17016C9.43996 2.50016 9.33996 2.84016 9.21996 3.20016V3.19016Z" fill="#13498E"/>
</svg>
