<?xml version="1.0" encoding="UTF-8"?>
<svg id="Layer_1" data-name="Layer 1" xmlns="http://www.w3.org/2000/svg" viewBox="0 0 72 72">
  <defs>
    <style>
      .cls-1 {
        fill: #002855;
      }
    </style>
  </defs>
  <path class="cls-1" d="M51.03,65.1h-5.17c-.58,0-1.05-.47-1.05-1.05s.47-1.05,1.05-1.05h5.17c1.55,0,2.92-.93,3.49-2.36l2.32-5.78c.22-.54,.83-.8,1.37-.59,.54,.22,.8,.83,.59,1.37l-2.32,5.78c-.9,2.24-3.04,3.68-5.45,3.68Z"/>
  <path class="cls-1" d="M51.03,69.44h-5.17c-.58,0-1.05-.47-1.05-1.05s.47-1.05,1.05-1.05h5.17c3.33,0,6.28-2,7.52-5.08l3.02-7.52c.22-.54,.83-.8,1.37-.59,.54,.22,.8,.83,.59,1.37l-3.02,7.52c-1.56,3.89-5.28,6.41-9.48,6.41Z"/>
  <path class="cls-1" d="M61.01,56.5c-.1,0-.21,0-.31-.01l-5.16-.33c-.58-.04-1.02-.54-.98-1.12,.04-.58,.54-1.02,1.12-.98l5.16,.33c1.22,.08,2.35-.66,2.77-1.81l1.05-2.88c.2-.55,.8-.83,1.35-.63,.55,.2,.83,.8,.63,1.35l-1.05,2.88c-.7,1.92-2.55,3.2-4.58,3.2Zm6.36-10.12c-.12,0-.24-.02-.36-.06-.55-.2-.83-.8-.63-1.35l.41-1.12c.42-1.14,.02-2.44-.96-3.17l-4.17-3.06c-.47-.34-.57-1.01-.23-1.47,.34-.47,1.01-.57,1.47-.23l4.17,3.06c1.73,1.27,2.43,3.57,1.69,5.59l-.41,1.12c-.16,.43-.56,.69-.99,.69Z"/>
  <path class="cls-1" d="M52.53,58.04c-.52,0-1.05-.09-1.55-.28-1.14-.41-2.05-1.25-2.56-2.34-.51-1.1-.57-2.33-.15-3.46l6.37-17.51c.41-1.14,1.25-2.05,2.34-2.56,1.1-.51,2.33-.57,3.46-.15,1.14,.41,2.05,1.25,2.56,2.34,.51,1.1,.57,2.33,.15,3.46l-6.37,17.51c-.41,1.14-1.25,2.05-2.34,2.56-.61,.28-1.26,.43-1.91,.43Zm6.37-24.47c-.35,0-.7,.08-1.02,.23-.59,.27-1.03,.76-1.25,1.37l-6.37,17.51c-.46,1.25,.19,2.65,1.45,3.1,.61,.22,1.27,.19,1.85-.08s1.03-.76,1.25-1.37l6.37-17.51c.22-.61,.19-1.27-.08-1.85-.27-.59-.76-1.03-1.37-1.25h0c-.27-.1-.55-.15-.83-.15Z"/>
  <path class="cls-1" d="M41.66,72c-3.19,0-5.78-2.59-5.78-5.78s2.59-5.78,5.78-5.78,5.78,2.59,5.78,5.78-2.59,5.78-5.78,5.78Zm0-9.45c-2.02,0-3.67,1.65-3.67,3.67s1.65,3.67,3.67,3.67,3.67-1.65,3.67-3.67-1.65-3.67-3.67-3.67Z"/>
  <path class="cls-1" d="M30.61,66.27c-.7,0-1.38-.25-1.94-.73l-9.15-7.83h-3.22c-.58,0-1.05-.47-1.05-1.05s.47-1.05,1.05-1.05h3.61c.25,0,.49,.09,.69,.25l9.44,8.08c.4,.35,.83,.19,.96,.13,.12-.06,.52-.28,.52-.81v-6.6c0-.58,.47-1.05,1.05-1.05h6.25c3.1,0,5.62-2.52,5.62-5.62V31.87c0-3.1-2.52-5.62-5.62-5.62H8.94c-3.1,0-5.62,2.52-5.62,5.62v18.12c0,3.1,2.52,5.62,5.62,5.62h2.33c.58,0,1.05,.47,1.05,1.05s-.47,1.05-1.05,1.05h-2.33c-4.26,0-7.73-3.47-7.73-7.73V31.87c0-4.26,3.47-7.73,7.73-7.73h29.88c4.26,0,7.73,3.47,7.73,7.73v18.12c0,4.26-3.47,7.73-7.73,7.73h-5.19v5.54c0,1.19-.67,2.23-1.75,2.73-.41,.19-.84,.28-1.27,.28Zm3.13-17.83H9.21c-.58,0-1.05-.47-1.05-1.05s.47-1.05,1.05-1.05h24.53c.58,0,1.05,.47,1.05,1.05s-.47,1.05-1.05,1.05Zm4.8-5.15H9.21c-.58,0-1.05-.47-1.05-1.05s.47-1.05,1.05-1.05h29.33c.58,0,1.05,.47,1.05,1.05s-.47,1.05-1.05,1.05Zm0-5.15H9.21c-.58,0-1.05-.47-1.05-1.05s.47-1.05,1.05-1.05h29.33c.58,0,1.05,.47,1.05,1.05s-.47,1.05-1.05,1.05Z"/>
  <path class="cls-1" d="M67.99,44.3c-.11,0-.23-.02-.35-.06-.55-.19-.84-.79-.65-1.34,1.12-3.24,1.69-6.63,1.69-10.07,0-8.21-3.2-15.92-9-21.72-5.8-5.8-13.52-9-21.72-9s-15.92,3.2-21.72,9c-4.05,4.05-6.87,9.09-8.17,14.6-.13,.57-.7,.92-1.27,.78-.57-.13-.92-.7-.78-1.27,1.39-5.89,4.41-11.28,8.73-15.61C20.95,3.41,29.2,0,37.97,0s17.01,3.41,23.21,9.61c6.2,6.2,9.62,14.45,9.62,23.22,0,3.67-.61,7.29-1.81,10.76-.15,.44-.56,.71-1,.71Z"/>
  <path class="cls-1" d="M64.82,39.68c-.07,0-.15,0-.22-.02-.57-.12-.93-.68-.81-1.25,.39-1.83,.59-3.7,.59-5.57,0-14.56-11.85-26.41-26.41-26.41-11.68,0-22.12,7.84-25.37,19.07-.16,.56-.75,.88-1.31,.72-.56-.16-.88-.75-.72-1.31,1.69-5.81,5.28-11.05,10.12-14.75,5-3.82,10.98-5.84,17.27-5.84,15.73,0,28.52,12.79,28.52,28.52,0,2.02-.22,4.04-.64,6.02-.11,.49-.54,.83-1.03,.83Z"/>
</svg>