<?xml version="1.0" encoding="UTF-8"?>
<svg id="Layer_1" data-name="Layer 1" xmlns="http://www.w3.org/2000/svg" viewBox="0 0 72 72">
  <defs>
    <style>
      .cls-1 {
        fill: #002855;
      }
    </style>
  </defs>
  <path class="cls-1" d="M36,72c-9.62,0-18.66-3.74-25.46-10.54S0,45.62,0,36,3.74,17.34,10.54,10.54,26.38,0,36,0s18.66,3.74,25.46,10.54,10.54,15.84,10.54,25.46-3.74,18.66-10.54,25.46-15.84,10.54-25.46,10.54Zm0-69.89C17.31,2.11,2.11,17.31,2.11,36s15.2,33.89,33.89,33.89,33.89-15.2,33.89-33.89S54.69,2.11,36,2.11Z"/>
  <path class="cls-1" d="M36,67.05c-8.3,0-16.09-3.23-21.96-9.1-5.87-5.87-9.1-13.66-9.1-21.96,0-10.46,5.21-20.15,13.95-25.92,.49-.32,1.14-.19,1.46,.3,.32,.49,.19,1.14-.3,1.46-8.14,5.38-13,14.42-13,24.16,0,15.96,12.98,28.95,28.95,28.95,3.91,0,7.7-.77,11.27-2.27,.54-.23,1.16,.02,1.38,.56,.23,.54-.02,1.16-.56,1.38-3.83,1.62-7.9,2.44-12.09,2.44Z"/>
  <path class="cls-1" d="M51.56,62.71c-.36,0-.7-.18-.9-.51-.3-.5-.14-1.15,.35-1.45,8.73-5.3,13.94-14.56,13.94-24.76,0-15.96-12.98-28.95-28.95-28.95-4.32,0-8.48,.93-12.35,2.76-.53,.25-1.16,.02-1.4-.5-.25-.53-.02-1.16,.5-1.4,4.16-1.97,8.62-2.96,13.25-2.96,8.3,0,16.09,3.23,21.96,9.1,5.87,5.87,9.1,13.66,9.1,21.96,0,5.43-1.42,10.78-4.12,15.46-2.61,4.54-6.36,8.38-10.84,11.1-.17,.1-.36,.15-.55,.15Z"/>
  <path class="cls-1" d="M36,11.83c-.58,0-1.05-.47-1.05-1.05V6.14c0-.58,.47-1.05,1.05-1.05s1.05,.47,1.05,1.05v4.63c0,.58-.47,1.05-1.05,1.05Z"/>
  <path class="cls-1" d="M53.84,19.22c-.27,0-.54-.1-.75-.31-.41-.41-.41-1.08,0-1.49l3.28-3.28c.41-.41,1.08-.41,1.49,0,.41,.41,.41,1.08,0,1.49l-3.28,3.28c-.21,.21-.48,.31-.75,.31Z"/>
  <path class="cls-1" d="M65.86,37.05h-4.63c-.58,0-1.05-.47-1.05-1.05s.47-1.05,1.05-1.05h4.63c.58,0,1.05,.47,1.05,1.05s-.47,1.05-1.05,1.05Z"/>
  <path class="cls-1" d="M57.11,58.17c-.27,0-.54-.1-.75-.31l-3.28-3.28c-.41-.41-.41-1.08,0-1.49,.41-.41,1.08-.41,1.49,0l3.28,3.28c.41,.41,.41,1.08,0,1.49-.21,.21-.48,.31-.75,.31Z"/>
  <path class="cls-1" d="M36,66.91c-.58,0-1.05-.47-1.05-1.05v-4.63c0-.58,.47-1.05,1.05-1.05s1.05,.47,1.05,1.05v4.63c0,.58-.47,1.05-1.05,1.05Z"/>
  <path class="cls-1" d="M14.89,58.17c-.27,0-.54-.1-.75-.31-.41-.41-.41-1.08,0-1.49l3.28-3.28c.41-.41,1.08-.41,1.49,0,.41,.41,.41,1.08,0,1.49l-3.28,3.28c-.21,.21-.48,.31-.75,.31Z"/>
  <path class="cls-1" d="M10.77,37.05H6.14c-.58,0-1.05-.47-1.05-1.05s.47-1.05,1.05-1.05h4.63c.58,0,1.05,.47,1.05,1.05s-.47,1.05-1.05,1.05Z"/>
  <path class="cls-1" d="M18.16,19.22c-.27,0-.54-.1-.75-.31l-3.28-3.28c-.41-.41-.41-1.08,0-1.49s1.08-.41,1.49,0l3.28,3.28c.41,.41,.41,1.08,0,1.49-.21,.21-.48,.31-.75,.31Z"/>
  <path class="cls-1" d="M36,38.76c-1.74,0-3.16-1.42-3.16-3.16s1.42-3.16,3.16-3.16,3.16,1.42,3.16,3.16-1.42,3.16-3.16,3.16Zm0-4.22c-.58,0-1.05,.47-1.05,1.05s.47,1.05,1.05,1.05,1.05-.47,1.05-1.05-.47-1.05-1.05-1.05Z"/>
  <path class="cls-1" d="M37.49,35.16c-.27,0-.54-.1-.75-.31-.41-.41-.41-1.08,0-1.49l11.29-11.29c.41-.41,1.08-.41,1.49,0,.41,.41,.41,1.08,0,1.49l-11.29,11.29c-.21,.21-.48,.31-.75,.31Z"/>
  <path class="cls-1" d="M34.51,35.16c-.27,0-.54-.1-.75-.31l-6.39-6.39c-.41-.41-.41-1.08,0-1.49,.41-.41,1.08-.41,1.49,0l6.39,6.39c.41,.41,.41,1.08,0,1.49-.21,.21-.48,.31-.75,.31Z"/>
  <path class="cls-1" d="M39.73,48.16h-7.45c-.58,0-1.05-.47-1.05-1.05s.47-1.05,1.05-1.05h7.45c.58,0,1.05,.47,1.05,1.05s-.47,1.05-1.05,1.05Z"/>
</svg>