<?xml version="1.0" encoding="utf-8"?>
<!-- Generator: Adobe Illustrator 26.5.0, SVG Export Plug-In . SVG Version: 6.00 Build 0)  -->
<svg version="1.1" id="Layer_1" xmlns="http://www.w3.org/2000/svg" xmlns:xlink="http://www.w3.org/1999/xlink" x="0px" y="0px"
	 viewBox="0 0 20 20" style="enable-background:new 0 0 20 20;" xml:space="preserve">
<style type="text/css">
	.st0{fill:#002855;}
</style>
<g>
	<path class="st0" d="M17.1,8.4c0-2.8-2.4-5.4-5.4-5.8c-0.1,0-0.1,0-0.2,0c-0.1,0-0.3,0-0.5,0c-0.6,0-0.8,0.4-0.8,0.7
		c0,0.2,0,0.5,0.1,0.6c0.2,0.3,0.6,0.3,0.8,0.4c0.1,0,0.2,0,0.2,0c2.7,0.6,3.6,1.5,4,4.2c0,0.1,0,0.1,0,0.2c0,0.3,0.1,1,0.8,1h0
		c0.1,0,0.1,0,0.2,0c0.7-0.1,0.6-0.7,0.6-1C17.1,8.6,17.1,8.5,17.1,8.4C17.1,8.4,17.1,8.4,17.1,8.4L17.1,8.4z"/>
	<path class="st0" d="M10.9,1.6c0.1,0,0.2,0,0.2,0c4.4,0.7,6.4,2.8,7,7.2c0,0.1,0,0.2,0,0.3c0,0.3,0,1.1,0.8,1.1l0,0
		c0.2,0,0.4-0.1,0.6-0.2c0.2-0.3,0.2-0.6,0.2-0.9c0-0.1,0-0.1,0-0.2c0.1-4.5-3.9-8.6-8.4-8.8c0,0,0,0-0.1,0c0,0,0,0-0.1,0
		c0,0-0.1,0-0.2,0c-0.1,0-0.2,0-0.2,0C10.1,0,10,0.5,10,0.8C9.9,1.5,10.6,1.6,10.9,1.6L10.9,1.6z M17.9,14.5
		c-0.1-0.1-0.2-0.1-0.3-0.2c-0.5-0.4-1-0.7-1.5-1.1c-0.1-0.1-0.2-0.1-0.3-0.2c-0.6-0.4-1.2-0.7-1.7-0.7c-0.7,0-1.4,0.4-1.9,1.2
		C12,13.9,11.7,14,11.4,14c-0.2,0-0.4-0.1-0.7-0.2c-2-0.9-3.5-2.3-4.3-4.2C6,8.8,6.1,8.2,6.8,7.7c0.4-0.3,1.2-0.8,1.1-1.8
		C7.8,4.8,5.4,1.5,4.4,1.1C3.9,1,3.5,1,3,1.1c-1.2,0.4-2,1.1-2.5,2C0.1,4,0.2,5.1,0.6,6.2C1.9,9.3,3.7,12,6,14.3
		c2.2,2.2,5,4,8.1,5.4c0.3,0.1,0.6,0.2,0.8,0.2c0.1,0,0.1,0,0.2,0c0,0,0.1,0,0.1,0l0,0h0c1.5,0,3.3-1.4,3.8-2.9
		C19.5,15.7,18.6,15.1,17.9,14.5L17.9,14.5z M11.6,5.2c-0.3,0-0.8,0-1,0.6c-0.1,0.3-0.1,0.5,0,0.7c0.2,0.3,0.5,0.3,0.7,0.4
		c1,0.2,1.5,0.7,1.6,1.7c0,0.5,0.4,0.8,0.8,0.8h0c0,0,0.1,0,0.1,0c0.5-0.1,0.7-0.4,0.7-1.1c0-0.7-0.4-1.5-1-2.1
		C13,5.5,12.3,5.2,11.6,5.2L11.6,5.2z"/>
</g>
</svg>
