<svg width="24" height="24" viewBox="0 0 24 24" fill="none" xmlns="http://www.w3.org/2000/svg">
<path d="M12.7856 1.81561C12.9056 1.81561 13.0256 1.81561 13.0256 1.81561C18.3056 2.65561 20.7056 5.17561 21.4256 10.4556C21.4256 10.5756 21.4256 10.6956 21.4256 10.8156C21.4256 11.1756 21.4256 12.1356 22.3856 12.1356C22.6256 12.1356 22.8656 12.0156 23.1056 11.8956C23.3456 11.5356 23.3456 11.1756 23.3456 10.8156C23.3456 10.6956 23.3456 10.6956 23.3456 10.5756C23.4656 5.17561 18.6656 0.255608 13.2656 0.0156078C13.2656 0.0156078 13.2656 0.0156078 13.1456 0.0156078C13.1456 0.0156078 13.1456 0.0156078 13.0256 0.0156078C13.0256 0.0156078 12.9056 0.0156078 12.7856 0.0156078C12.6656 0.0156078 12.5456 0.0156078 12.5456 0.0156078C11.8256 -0.104392 11.7056 0.495608 11.7056 0.855608C11.5856 1.69561 12.4256 1.81561 12.7856 1.81561ZM21.1856 17.2956C21.0656 17.1756 20.9456 17.1756 20.8256 17.0556C20.2256 16.5756 19.6256 16.2156 19.0256 15.7356C18.9056 15.6156 18.7856 15.6156 18.6656 15.4956C17.9456 15.0156 17.2256 14.6556 16.6256 14.6556C15.7856 14.6556 14.9456 15.1356 14.3456 16.0956C14.1056 16.5756 13.7456 16.6956 13.3856 16.6956C13.1456 16.6956 12.9056 16.5756 12.5456 16.4556C10.1456 15.3756 8.34557 13.6956 7.38557 11.4156C6.90557 10.4556 7.02557 9.73561 7.86557 9.13561C8.34557 8.77561 9.30557 8.17561 9.18557 6.97561C9.06557 5.65561 6.18557 1.69561 4.98557 1.21561C4.38557 1.09561 3.90557 1.09561 3.30557 1.21561C1.86557 1.69561 0.905568 2.53561 0.305568 3.61561C-0.174432 4.69561 -0.0544322 6.01561 0.425568 7.33561C1.98557 11.0556 4.14557 14.2956 6.90557 17.0556C9.54557 19.6956 12.9056 21.8556 16.6256 23.5356C16.9856 23.6556 17.3456 23.7756 17.5856 23.7756C17.7056 23.7756 17.7056 23.7756 17.8256 23.7756H17.9456C19.7456 23.7756 21.9056 22.0956 22.5056 20.2956C23.1056 18.7356 22.0256 18.0156 21.1856 17.2956ZM13.6256 6.13561C13.2656 6.13561 12.6656 6.13561 12.4256 6.85561C12.3056 7.21561 12.3056 7.45561 12.4256 7.69561C12.6656 8.05561 13.0256 8.05561 13.2656 8.17561C14.4656 8.41561 15.0656 9.01561 15.1856 10.2156C15.1856 10.8156 15.6656 11.1756 16.1456 11.1756H16.2656C16.8656 11.0556 17.1056 10.6956 17.1056 9.85561C17.1056 9.01561 16.6256 8.05561 15.9056 7.33561C15.3056 6.49561 14.4656 6.13561 13.6256 6.13561Z" fill="white"/>
</svg>
